Patient5_TMGait_0pt45_1_right_10_EMG.mot
version=1
nRows=16
nColumns=33
inDegrees=no
endheader
time	1LAddLong	2LGlutMax	3LGlutMed	4LIliopsoas	5LSemiMemb	6LBicFemLong	7LRecFem	8LTensFascLat	9LVastMed	10LVasLat	11LGasMed	12lGasLat	13LTibAnt	14LPeroneusLong	15LSol	16LTibPost	17RAddLong	18RGlutMax	19RGlutMed	20RIliopsoas	21RSemiMemb	22RBicFemLong	23RRecFem	24RTensFascLat	25RVastMed	26RVasLat	27RGasMed	28RGasLat	29RTibAnt	30RPeroneusLong	31RSol	32RTibPost
16.32	-0.033569	0.0177	0.15839	0.003357	-0.027466	-0.009766	0.021362	0.41382	0.074921	-0.084839	-0.001373	-0.013428	-0.017242	0.00351	-0.020447	-0.015411	0.012207	-0.004883	-0.033569	0.020905	-0.00885	0.002899	0.000305	0.028839	0.022278	-0.012207	0.001221	-0.009003	0.046539	0.014343	0.025177	0.00351
16.321	-0.052948	0.030975	0.054932	-0.010223	0.015717	0.02243	0.020905	0.18829	0.096588	-0.059052	0.04425	-0.003052	-0.019531	-0.003662	-0.013733	0.051727	0.007935	-0.008392	0.028381	-0.004578	-0.027466	-0.001831	0.01297	0.004425	0.029449	0.00061	0.000458	-0.027161	0.057526	0.040131	0.009613	-0.002747
16.322	-0.068665	0.050659	-0.17425	0.000305	0.089417	0.035553	0.002289	-0.065155	0.11185	-0.003815	0.009155	-0.00946	-0.017242	0.003815	-0.021057	0.009155	0.016632	-0.007019	0.032349	0.015717	-0.042114	-0.001373	0.002441	-0.007477	0.028687	-0.009613	0.002289	-0.019989	0.037384	0.03952	0.007324	-0.001221
16.323	-0.067902	0.049896	-0.27054	0.011749	0.033875	0.055084	-0.000916	-0.14893	0.090485	0.016327	0.055084	-0.001526	-0.007324	0.01236	0.021515	-0.055695	0.011444	-0.007629	0.008698	-0.024567	-0.047913	-0.006714	0.008392	-0.016937	0.023346	-0.003052	-0.002136	-0.021057	0.033722	0.030975	0.004272	0.003967
16.324	-0.082092	0.035706	-0.14145	0.021057	-0.001831	0.11246	-0.004425	-0.000763	0.074463	-0.029602	0.040436	-0.036926	-0.009766	0.02243	0.030518	0.13992	0.007782	-0.008545	-0.039673	-0.012665	-0.04776	-0.001373	0.007172	0.004578	0.031738	-0.000305	-0.002136	-0.0177	0.028687	0.015564	0.006104	-0.00061
16.325	-0.10941	0.016937	0.091553	-0.008698	0.006256	0.11643	-0.017242	0.27832	0.06073	-0.042725	0.052032	-0.033264	0.01358	0.030518	-0.00061	0.11932	0.016785	-0.00061	-0.027313	-0.003357	-0.039673	-0.001068	0.006714	0.002289	0.03418	0.001373	-0.000458	-0.019836	0.011749	0.008698	0.007935	-0.002899
16.326	-0.064392	0.010071	0.075226	-0.017395	0.004578	0.11002	-0.022736	0.27802	0.040588	-0.031891	0.012054	0.010071	0.01236	0.055695	0.034027	-0.047455	0.017853	-0.006104	-0.021667	-0.032806	-0.024109	-0.00824	0.002136	-0.008392	0.031128	-0.006866	0.000305	-0.018311	0.00412	0.00824	0.005341	-0.007477
16.327	-0.0383	-0.007019	0.19836	-0.02533	0.005341	0.11261	-0.024414	0.36667	0.018921	-0.040588	-0.079193	0.022278	0.002289	0.055237	0.093994	-0.055237	0.014954	-0.001678	-0.077972	-0.048065	-0.018921	-0.001831	-0.006866	0.000305	0.022583	-0.010071	-0.00061	-0.001526	0.007782	0.003662	0.009918	-0.001984
16.328	-0.050507	-0.006866	0.23071	-0.005798	0.01358	0.097809	-0.016174	0.39932	-0.008698	-0.057068	-0.098419	0.014191	-0.000458	0.067749	0.077362	0.17197	0.011139	-0.003357	-0.046539	-0.013275	-0.023651	-0.005035	-0.004425	-0.019836	0.028839	-0.007172	-0.010071	-0.018616	0.007477	0.007935	0.010681	-0.001373
16.329	-0.011292	0.000763	0.040436	-0.045471	0.019684	0.11917	-0.016022	0.20248	-0.025787	-0.042419	-0.028839	0.010223	0.000305	0.094299	-0.026245	-0.041199	0.016632	-0.006561	-0.005188	0.006256	-0.002899	0.000153	0.002136	-0.01236	0.019989	-0.012512	0.001373	-0.008698	-0.007935	0.000763	0.010529	-0.005646
16.33	0.052338	-0.006561	-0.12924	-0.052185	0.015106	0.10483	-0.011902	-0.031128	-0.042419	-0.014954	0.018463	0.002441	0.002899	0.081482	-0.095367	-0.055847	0.01709	-0.00412	0.006409	0.16525	-0.008698	-0.008392	0.002289	-0.030365	0.021667	0.007935	0.007782	-0.02533	-0.009308	-0.023651	0.000916	-0.006866
16.331	0.059357	-0.008392	-0.097198	-0.029297	0.010986	0.042267	-0.00946	-0.018311	-0.052795	0.000153	0.02121	0.042572	0.001526	0.032654	-0.2652	0.23148	0.007019	-0.003815	0.012512	0.025635	-0.006561	-0.002747	0.000763	-0.027466	0.02182	-0.013275	-0.005188	-0.016174	-0.016632	-0.040283	0.006409	-0.009308
16.332	0.085602	-0.009308	0.00351	-0.002594	0.007629	-0.053711	-0.011444	0.067291	-0.043335	-0.003662	-0.011902	0.053101	0.004883	-0.034485	-0.2945	0.072937	0.010071	-0.002899	-0.013428	0.020294	-0.003662	-0.001831	0.000916	-0.009003	0.03067	-0.007629	-0.003815	-0.006104	-0.044556	-0.023499	-0.00351	-0.002289
16.333	0.11414	0.00061	-0.031128	0.011292	0.004578	-0.18784	0.002594	0.042419	-0.029755	-0.02243	-0.061951	0.056	0.012054	-0.03952	-0.076294	-0.052338	0.005951	-0.007324	-0.027771	0.005188	0.016174	0.003204	-0.000305	-0.002441	0.028076	-0.011444	-0.004578	0.010529	-0.073242	-0.020294	-0.00824	0.000916
16.334	0.11429	-0.000458	-0.04425	0.013885	0.035095	-0.17761	-0.005798	-0.008698	-0.016632	-0.016785	-0.086975	0.070953	0.000305	-0.057068	0.033264	-0.011597	0.003967	-0.001678	-0.042572	-0.10117	0.008087	0.000458	0.002289	0.00946	0.032501	0.001831	-0.004883	0.020447	-0.064545	-0.004425	-0.002441	-0.00824
16.335	0.11108	-0.001373	-0.000916	0.012207	0.066681	-0.16251	-0.002747	-0.005035	-0.003662	-0.013123	-0.078583	0.098572	-0.00351	-0.050049	0.10315	0.048828	0.005951	-0.002441	-0.025482	-0.031738	0.03891	0.004272	0.005798	0.019379	0.036774	0.004425	0.000763	0.030518	-0.045166	-0.001678	-0.007019	-0.002136
